<svg xmlns="http://www.w3.org/2000/svg" viewBox="0 0 870.38 870.38"><defs><style>.cls-1{fill:#484542;}.cls-2{fill:#ffb71b;}.cls-3{fill:none;stroke:#ffb71b;stroke-linecap:round;stroke-linejoin:round;stroke-width:19.2px;}.cls-4{fill:#fff;}</style></defs><title>Asset 1</title><g id="Layer_2" data-name="Layer 2"><g id="Layer_1-2" data-name="Layer 1"><circle class="cls-1" cx="435.19" cy="435.19" r="435.19"/><polygon class="cls-2" points="314.32 580.32 412.41 510.85 412.41 649.61 314.32 580.32"/><polygon class="cls-2" points="400.85 304.82 302.97 374.04 302.97 235.68 400.85 304.82"/><polygon class="cls-2" points="302.97 420.28 400.56 489.29 302.97 558.42 302.97 420.28"/><polygon class="cls-2" points="312.31 397.16 412.47 326.32 412.47 467.99 312.31 397.16"/><polygon class="cls-2" points="412.47 283.32 328.58 224.05 412.47 224.05 412.47 283.32"/><polygon class="cls-2" points="302.97 601.72 386.86 660.99 302.97 660.99 302.97 601.72"/><polyline class="cls-3" points="188.79 207.36 357.72 119.48 571.39 207.36"/><polygon class="cls-2" points="302.97 601.72 514.11 750.89 302.97 750.89 302.97 601.72"/><polygon class="cls-2" points="357.72 119.48 302.97 195.36 412.47 195.26 357.72 119.48"/><rect class="cls-4" x="436.72" y="418.38" width="248.11" height="109.5"/><polygon class="cls-4" points="400.78 641.4 556.01 750.89 684.83 750.89 684.83 641.4 400.78 641.4"/><polygon class="cls-2" points="657.08 195.36 98.71 195.36 98.71 195.36 190.09 304.86 748.46 304.86 657.08 195.36"/><polygon class="cls-2" points="357.72 119.48 302.97 195.36 412.47 195.26 357.72 119.48"/><polygon class="cls-2" points="302.97 195.36 302.97 195.36 302.97 214.04 412.47 214.04 412.47 195.36 302.97 195.36"/></g></g></svg>